<?xml version="1.0" encoding="UTF-8" standalone="no"?>
<svg
   xmlns:dc="http://purl.org/dc/elements/1.1/"
   xmlns:cc="http://creativecommons.org/ns#"
   xmlns:rdf="http://www.w3.org/1999/02/22-rdf-syntax-ns#"
   xmlns:svg="http://www.w3.org/2000/svg"
   xmlns="http://www.w3.org/2000/svg"
   id="svg5173"
   version="1.1"
   viewBox="0 0 10.981972 10.585075"
   height="10.585075mm"
   width="10.981972mm">
  <defs
     id="defs5167">
    <clipPath
       clipPathUnits="userSpaceOnUse"
       id="clipPath4545">
      <path
         d="m 355.01,722.9 -78.54,45.4 v -90.81 z"
         clip-rule="evenodd"
         id="path4543" />
    </clipPath>
    <clipPath
       clipPathUnits="userSpaceOnUse"
       id="clipPath4535">
      <path
         d="m 81.105,379.7 h 80.029 v 80.029 H 81.105 Z"
         clip-rule="evenodd"
         id="path4533" />
    </clipPath>
    <clipPath
       clipPathUnits="userSpaceOnUse"
       id="clipPath4565">
      <path
         d="m 523.28,420.48 c 1.58,1.43 4.19,4.65 5.23,6.44 2.07,4.02 2.62,8.14 2.62,12.58 -0.55,4.33 -2.07,8.45 -4.68,12.04 -3.17,2.86 -6.88,4.87 -10.46,6.03 -4.27,0.85 -8.39,0 -12.11,-1.16 l -50.23,-35.93 50.23,-35.4 c 3.72,-1.7 7.84,-2.12 12.11,-1.7 3.58,1.28 7.29,3.71 10.46,6.46 2.61,3.69 4.13,7.71 4.68,11.72 0,4.44 -0.55,8.88 -2.62,12.48 -1.04,1.84 -3.65,5.06 -5.23,6.44 z"
         clip-rule="evenodd"
         id="path4563" />
    </clipPath>
    <clipPath
       clipPathUnits="userSpaceOnUse"
       id="clipPath4555">
      <path
         d="m 308.01,163.89 c -25.15,0 -45.54,-20.39 -45.54,-45.55 0,-25.151 20.39,-45.541 45.54,-45.541 25.16,0 45.55,20.39 45.55,45.541 0,25.16 -20.39,45.55 -45.55,45.55 z"
         clip-rule="evenodd"
         id="path4553" />
    </clipPath>
    <clipPath
       clipPathUnits="userSpaceOnUse"
       id="clipPath4335">
      <path
         d="M 49.348,248.17 H 75.92 v 26.572 H 49.348 Z"
         clip-rule="evenodd"
         id="path4333" />
    </clipPath>
    <clipPath
       clipPathUnits="userSpaceOnUse"
       id="clipPath4345">
      <path
         d="M 116.86,261.45 90.984,276.41 V 246.49 Z"
         clip-rule="evenodd"
         id="path4343" />
    </clipPath>
    <clipPath
       clipPathUnits="userSpaceOnUse"
       id="clipPath4355">
      <path
         d="m 143.34,275.45 c -7.73,0 -14,-6.27 -14,-14 0,-7.73 6.27,-14 14,-14 7.73,0 14,6.27 14,14 0,7.73 -6.27,14 -14,14 z"
         clip-rule="evenodd"
         id="path4353" />
    </clipPath>
    <clipPath
       clipPathUnits="userSpaceOnUse"
       id="clipPath4365">
      <path
         d="m 195.87,261.37 c 0.64,0.57 1.69,1.87 2.1,2.59 0.84,1.61 1.06,3.27 1.06,5.05 -0.22,1.74 -0.83,3.4 -1.89,4.84 -1.27,1.14 -2.76,1.95 -4.2,2.42 -1.71,0.34 -3.37,0 -4.86,-0.47 l -20.18,-14.43 20.18,-14.23 c 1.49,-0.68 3.15,-0.84 4.86,-0.68 1.44,0.52 2.93,1.49 4.2,2.6 1.06,1.48 1.67,3.09 1.89,4.71 0,1.78 -0.22,3.56 -1.06,5.01 -0.41,0.74 -1.46,2.03 -2.1,2.59 z"
         clip-rule="evenodd"
         id="path4363" />
    </clipPath>
  </defs>
  <metadata
     id="metadata5170">
    <rdf:RDF>
      <cc:Work
         rdf:about="">
        <dc:format>image/svg+xml</dc:format>
        <dc:type
           rdf:resource="http://purl.org/dc/dcmitype/StillImage" />
        <dc:title></dc:title>
      </cc:Work>
    </rdf:RDF>
  </metadata>
  <g
     transform="translate(-141.08542,-196.35131)"
     id="layer1">
    <g
       transform="matrix(0.35277777,0,0,-0.35277777,81.854033,293.86182)"
       id="g4359">
      <g
         id="g4361"
         clip-path="url(#clipPath4365)">
        <path
           d="m 195.87,261.37 c 0.64,0.57 1.69,1.87 2.1,2.59 0.84,1.61 1.06,3.27 1.06,5.05 -0.22,1.74 -0.83,3.4 -1.89,4.84 -1.27,1.14 -2.76,1.95 -4.2,2.42 -1.71,0.34 -3.37,0 -4.86,-0.47 l -20.18,-14.43 20.18,-14.23 c 1.49,-0.68 3.15,-0.84 4.86,-0.68 1.44,0.52 2.93,1.49 4.2,2.6 1.06,1.48 1.67,3.09 1.89,4.71 0,1.78 -0.22,3.56 -1.06,5.01 -0.41,0.74 -1.46,2.03 -2.1,2.59 z"
           style="fill:none;stroke:#231f20;stroke-width:6;stroke-linecap:round;stroke-linejoin:miter;stroke-miterlimit:10;stroke-dasharray:none;stroke-opacity:1"
           id="path4367" />
      </g>
    </g>
  </g>
</svg>
