<?xml version="1.0" encoding="UTF-8" standalone="no"?>
<svg
   xmlns:dc="http://purl.org/dc/elements/1.1/"
   xmlns:cc="http://creativecommons.org/ns#"
   xmlns:rdf="http://www.w3.org/1999/02/22-rdf-syntax-ns#"
   xmlns:svg="http://www.w3.org/2000/svg"
   xmlns="http://www.w3.org/2000/svg"
   id="svg2575"
   version="1.1"
   viewBox="0 0 10.628866 10.124722"
   height="10.124722mm"
   width="10.628866mm">
  <defs
     id="defs2569" />
  <metadata
     id="metadata2572">
    <rdf:RDF>
      <cc:Work
         rdf:about="">
        <dc:format>image/svg+xml</dc:format>
        <dc:type
           rdf:resource="http://purl.org/dc/dcmitype/StillImage" />
        <dc:title></dc:title>
      </cc:Work>
    </rdf:RDF>
  </metadata>
  <g
     transform="translate(-228.27485,-30.467401)"
     id="layer1">
    <path
       d="m 233.60453,31.493984 c -0.20461,-0.208139 -0.66322,-0.546805 -0.91722,-0.684389 -0.5715,-0.268111 -1.16064,-0.342194 -1.79211,-0.342194 -0.61384,0.07408 -1.20297,0.271639 -1.71097,0.613833 -0.40923,0.41275 -0.69498,0.899584 -0.86078,1.36525 -0.11995,0.557389 0,1.097139 0.1658,1.583972 l 5.11528,6.561667 5.03767,-6.561667 c 0.23989,-0.486833 0.29986,-1.026583 0.23989,-1.583972 -0.17992,-0.465666 -0.52564,-0.9525 -0.91723,-1.36525 -0.52563,-0.342194 -1.09713,-0.53975 -1.66863,-0.613833 -0.63148,0 -1.26295,0.07408 -1.77448,0.342194 -0.26458,0.137584 -0.72319,0.47625 -0.91722,0.684389 z"
       style="fill:#ed1c24;fill-opacity:1;fill-rule:evenodd;stroke:none;stroke-width:0.352777"
       id="path1863" />
  </g>
</svg>
