<?xml version="1.0" encoding="UTF-8" standalone="no"?>
<svg
   xmlns:dc="http://purl.org/dc/elements/1.1/"
   xmlns:cc="http://creativecommons.org/ns#"
   xmlns:rdf="http://www.w3.org/1999/02/22-rdf-syntax-ns#"
   xmlns:svg="http://www.w3.org/2000/svg"
   xmlns="http://www.w3.org/2000/svg"
   id="svg5173"
   version="1.1"
   viewBox="0 0 32.134526 32.134881"
   height="32.13488mm"
   width="32.134525mm">
  <defs
     id="defs5167">
    <clipPath
       clipPathUnits="userSpaceOnUse"
       id="clipPath4545">
      <path
         d="m 355.01,722.9 -78.54,45.4 v -90.81 z"
         clip-rule="evenodd"
         id="path4543" />
    </clipPath>
    <clipPath
       clipPathUnits="userSpaceOnUse"
       id="clipPath4535">
      <path
         d="m 81.105,379.7 h 80.029 v 80.029 H 81.105 Z"
         clip-rule="evenodd"
         id="path4533" />
    </clipPath>
    <clipPath
       clipPathUnits="userSpaceOnUse"
       id="clipPath4565">
      <path
         d="m 523.28,420.48 c 1.58,1.43 4.19,4.65 5.23,6.44 2.07,4.02 2.62,8.14 2.62,12.58 -0.55,4.33 -2.07,8.45 -4.68,12.04 -3.17,2.86 -6.88,4.87 -10.46,6.03 -4.27,0.85 -8.39,0 -12.11,-1.16 l -50.23,-35.93 50.23,-35.4 c 3.72,-1.7 7.84,-2.12 12.11,-1.7 3.58,1.28 7.29,3.71 10.46,6.46 2.61,3.69 4.13,7.71 4.68,11.72 0,4.44 -0.55,8.88 -2.62,12.48 -1.04,1.84 -3.65,5.06 -5.23,6.44 z"
         clip-rule="evenodd"
         id="path4563" />
    </clipPath>
    <clipPath
       clipPathUnits="userSpaceOnUse"
       id="clipPath4555">
      <path
         d="m 308.01,163.89 c -25.15,0 -45.54,-20.39 -45.54,-45.55 0,-25.151 20.39,-45.541 45.54,-45.541 25.16,0 45.55,20.39 45.55,45.541 0,25.16 -20.39,45.55 -45.55,45.55 z"
         clip-rule="evenodd"
         id="path4553" />
    </clipPath>
  </defs>
  <metadata
     id="metadata5170">
    <rdf:RDF>
      <cc:Work
         rdf:about="">
        <dc:format>image/svg+xml</dc:format>
        <dc:type
           rdf:resource="http://purl.org/dc/dcmitype/StillImage" />
        <dc:title></dc:title>
      </cc:Work>
    </rdf:RDF>
  </metadata>
  <g
     transform="translate(-81.391544,-146.99968)"
     id="layer1">
    <g
       transform="matrix(0.35277777,0,0,-0.35277777,-11.202037,204.81643)"
       id="g4549">
      <g
         id="g4551"
         clip-path="url(#clipPath4555)">
        <path
           d="m 308.01,163.89 c -25.15,0 -45.54,-20.39 -45.54,-45.55 0,-25.151 20.39,-45.541 45.54,-45.541 25.16,0 45.55,20.39 45.55,45.541 0,25.16 -20.39,45.55 -45.55,45.55 z"
           style="fill:none;stroke:#231f20;stroke-width:6;stroke-linecap:round;stroke-linejoin:round;stroke-miterlimit:10;stroke-dasharray:none;stroke-opacity:1"
           id="path4557" />
      </g>
    </g>
  </g>
</svg>
