<?xml version="1.0" encoding="UTF-8" standalone="no"?>
<svg
   xmlns:dc="http://purl.org/dc/elements/1.1/"
   xmlns:cc="http://creativecommons.org/ns#"
   xmlns:rdf="http://www.w3.org/1999/02/22-rdf-syntax-ns#"
   xmlns:svg="http://www.w3.org/2000/svg"
   xmlns="http://www.w3.org/2000/svg"
   width="11.875141mm"
   height="286.93195mm"
   viewBox="0 0 11.875141 286.93195"
   version="1.1"
   id="svg7248">
  <defs
     id="defs7242">
    <clipPath
       id="clipPath6394"
       clipPathUnits="userSpaceOnUse">
      <path
         id="path6392"
         clip-rule="evenodd"
         d="m 552.87,736.22 28.35,9.98 v 71.49 l -28.35,9.98 z" />
    </clipPath>
  </defs>
  <metadata
     id="metadata7245">
    <rdf:RDF>
      <cc:Work
         rdf:about="">
        <dc:format>image/svg+xml</dc:format>
        <dc:type
           rdf:resource="http://purl.org/dc/dcmitype/StillImage" />
        <dc:title></dc:title>
      </cc:Work>
    </rdf:RDF>
  </metadata>
  <g
     id="layer1"
     transform="translate(-104.43148,55.775492)">
    <path
       id="path6386"
       style="fill:#231f20;fill-opacity:1;fill-rule:evenodd;stroke:none;stroke-width:0.352777"
       d="m 116.23542,-23.510289 -10.00125,-3.520723 v -25.220081 l 10.00125,-3.520723 z" />
    <g
       id="g6388"
       transform="matrix(-0.35277777,0,0,-0.35277777,311.27567,236.21175)">
      <g
         clip-path="url(#clipPath6394)"
         id="g6390">
        <path
           id="path6396"
           style="fill:none;stroke:#231f20;stroke-width:1.5;stroke-linecap:round;stroke-linejoin:round;stroke-miterlimit:10;stroke-dasharray:none;stroke-opacity:1"
           d="m 552.87,736.22 28.35,9.98 v 71.49 l -28.35,9.98 z" />
      </g>
    </g>
    <g
       id="g6408"
       transform="matrix(-0.35277777,0,0,-0.35277777,311.27567,236.21175)">
      <path
         id="path6410"
         style="fill:none;stroke:#d9d8d9;stroke-width:2.25;stroke-linecap:butt;stroke-linejoin:round;stroke-miterlimit:10;stroke-dasharray:9, 6.75;stroke-dashoffset:0;stroke-opacity:1"
         d="M 582.58,813.24 V 746.33" />
    </g>
    <g
       id="g6412"
       transform="matrix(-0.35277777,0,0,-0.35277777,311.27567,236.21175)">
      <path
         id="path6414"
         style="fill:none;stroke:#d9d8d9;stroke-width:2.25;stroke-linecap:butt;stroke-linejoin:round;stroke-miterlimit:10;stroke-dasharray:9, 6.75;stroke-dashoffset:0;stroke-opacity:1"
         d="m 559.92,826.62 22.66,-8.03" />
    </g>
    <g
       id="g6416"
       transform="matrix(-0.35277777,0,0,-0.35277777,311.27567,236.21175)">
      <path
         id="path6418"
         style="fill:none;stroke:#d9d8d9;stroke-width:2.25;stroke-linecap:butt;stroke-linejoin:round;stroke-miterlimit:10;stroke-dasharray:9, 6.75;stroke-dashoffset:0;stroke-opacity:1"
         d="m 556.62,736.29 29.71,10.23" />
    </g>
    <g
       id="g6436"
       transform="matrix(-0.35277777,0,0,-0.35277777,311.27567,236.21175)">
      <path
         id="path6438"
         style="fill:none;stroke:#d9d8d9;stroke-width:2.25;stroke-linecap:butt;stroke-linejoin:round;stroke-miterlimit:10;stroke-dasharray:9, 6.75;stroke-dashoffset:0;stroke-opacity:1"
         d="M 554.52,735.22 553.79,14.33" />
    </g>
    <path
       style="fill:#d9d8d9;fill-opacity:1;stroke-width:0.0849918"
       d="m 114.01221,91.432785 c 0.24783,-0.11843 0.4811,-0.70507 0.41824,-1.05199 -0.027,-0.1488 -0.14522,-0.37584 -0.26278,-0.50454 -0.19838,-0.21713 -0.25285,-0.23171 -0.75624,-0.20243 l -0.54245,0.0316 -0.0537,-0.32996 c -0.0295,-0.18151 -0.13796,-0.5412 -0.24097,-0.79936 l -0.18731,-0.46937 0.41574,-1.62937 c 0.53024,-2.07817 0.54817,-2.18531 0.40022,-2.39047 -0.11451,-0.15888 -0.12611,-0.15351 -0.2732,0.12612 -0.0845,0.16062 -0.33778,0.80805 -0.56292,1.4388 -0.22514,0.63075 -0.43023,1.08924 -0.45577,1.01887 -0.0256,-0.0704 -0.17952,-0.50786 -0.3422,-0.97221 -0.37148,-1.06023 -0.71431,-1.8428 -0.80753,-1.84333 -0.0395,-2.1e-4 -0.0985,0.10509 -0.13181,0.23336 -0.0581,0.22583 0.0108,0.54053 0.68962,3.1598 l 0.22819,0.88019 -0.18339,0.52457 c -0.10086,0.28852 -0.20604,0.62539 -0.23373,0.74863 -0.0494,0.21966 -0.0611,0.22315 -0.59532,0.17707 -0.49913,-0.043 -0.56308,-0.0291 -0.75992,0.16614 -0.39469,0.39177 -0.405,1.08587 -0.0215,1.47487 0.39898,0.40476 1.19621,0.19547 1.41475,-0.37139 0.047,-0.12187 0.14508,-0.52754 0.21799,-0.90153 0.13768,-0.70613 0.33699,-1.14919 0.51651,-1.14816 0.0573,3.1e-4 0.2012,0.0874 0.31975,0.19331 0.17335,0.15503 0.23191,0.31768 0.29963,0.83164 0.12667,0.96122 0.22313,1.24419 0.5067,1.48628 0.2749,0.23474 0.65101,0.28172 0.98346,0.12292 z m -0.81389,-0.37866 c -0.47411,-0.40481 -0.28549,-1.14319 0.29121,-1.13992 0.35086,0.002 0.61487,0.20068 0.68137,0.51278 0.0743,0.3488 -0.0155,0.57571 -0.28531,0.72067 -0.31627,0.16994 -0.3905,0.15984 -0.68727,-0.0936 z m -3.30946,-0.10783 c -0.23638,-0.30488 -0.22148,-0.67151 0.0376,-0.92851 0.38982,-0.38693 1.0657,-0.18444 1.06287,0.31826 -0.004,0.72164 -0.71052,1.11338 -1.10053,0.61025 z"
       id="path2377" />
  </g>
</svg>
