<?xml version="1.0" encoding="UTF-8" standalone="no"?>
<svg
   xmlns:dc="http://purl.org/dc/elements/1.1/"
   xmlns:cc="http://creativecommons.org/ns#"
   xmlns:rdf="http://www.w3.org/1999/02/22-rdf-syntax-ns#"
   xmlns:svg="http://www.w3.org/2000/svg"
   xmlns="http://www.w3.org/2000/svg"
   id="svg14117"
   version="1.1"
   viewBox="0 0 11.124857 286.63052"
   height="286.63052mm"
   width="11.124857mm">
  <defs
     id="defs14111" />
  <metadata
     id="metadata14114">
    <rdf:RDF>
      <cc:Work
         rdf:about="">
        <dc:format>image/svg+xml</dc:format>
        <dc:type
           rdf:resource="http://purl.org/dc/dcmitype/StillImage" />
        <dc:title></dc:title>
      </cc:Work>
    </rdf:RDF>
  </metadata>
  <g
     transform="matrix(-1,0,0,1,161.28862,54.11288)"
     id="layer1">
    <path
       d="m 150.16376,61.527658 10.00125,-3.51719 V 32.786855 l -10.00125,-3.52072 z"
       style="fill:#ff1613;fill-opacity:1;fill-rule:evenodd;stroke:none;stroke-width:0.352777"
       id="path13050" />
    <g
       id="g13056"
       transform="matrix(0.35277777,0,0,-0.35277777,-44.876476,237.50028)">
      <path
         d="M 554.15,498.82 V 14.124"
         style="fill:none;stroke:#d9d8d9;stroke-width:2.25;stroke-linecap:butt;stroke-linejoin:round;stroke-miterlimit:10;stroke-dasharray:9, 6.75;stroke-dashoffset:0;stroke-opacity:1"
         id="path13058" />
    </g>
    <g
       id="g13070"
       transform="matrix(0.35277777,0,0,-0.35277777,-44.876476,237.50028)">
      <path
         d="M 583.28,575.77 V 508.86"
         style="fill:none;stroke:#d9d8d9;stroke-width:2.25;stroke-linecap:butt;stroke-linejoin:round;stroke-miterlimit:10;stroke-dasharray:9, 6.75;stroke-dashoffset:0;stroke-opacity:1"
         id="path13072" />
    </g>
    <g
       id="g13074"
       transform="matrix(0.35277777,0,0,-0.35277777,-44.876476,237.50028)">
      <path
         d="m 560.62,589.15 22.66,-8.03"
         style="fill:none;stroke:#d9d8d9;stroke-width:2.25;stroke-linecap:butt;stroke-linejoin:round;stroke-miterlimit:10;stroke-dasharray:9, 6.75;stroke-dashoffset:0;stroke-opacity:1"
         id="path13076" />
    </g>
    <g
       transform="matrix(0.35277777,0,0,-0.35277777,-44.876126,237.50028)"
       id="g13082">
      <path
         d="M 554.15,826.62 V 591.64"
         style="fill:none;stroke:#d9d8d9;stroke-width:2.25;stroke-linecap:butt;stroke-linejoin:round;stroke-miterlimit:10;stroke-dasharray:9, 6.75;stroke-dashoffset:0;stroke-opacity:1"
         id="path13084" />
    </g>
    <path
       style="opacity:0.995883;fill:#d9d8d9;fill-opacity:1;stroke-width:0.0849918"
       d="m 152.0977,87.680973 c -0.24967,-0.11454 -0.492,-0.69752 -0.43453,-1.04537 0.0247,-0.1492 0.13936,-0.37805 0.25492,-0.50856 0.19497,-0.22019 0.2492,-0.23562 0.75299,-0.21416 l 0.54289,0.0231 0.0485,-0.33077 c 0.0267,-0.18193 0.12953,-0.54328 0.22853,-0.803 l 0.18,-0.47222 -0.441,-1.62272 c -0.56246,-2.06967 -0.58206,-2.17653 -0.43731,-2.38397 0.11208,-0.1606 0.12371,-0.15545 0.27512,0.12187 0.087,0.15926 0.3503,0.80271 0.58521,1.42989 0.23491,0.62717 0.4471,1.08242 0.47153,1.01166 0.0244,-0.0708 0.17162,-0.51059 0.32708,-0.9774 0.35495,-1.06588 0.68559,-1.85368 0.7788,-1.85565 0.0394,-8.4e-4 0.10034,0.10323 0.13541,0.23126 0.0616,0.22491 -0.002,0.54063 -0.64045,3.17014 l -0.21449,0.88363 0.19151,0.52165 c 0.10534,0.28691 0.21574,0.62212 0.24533,0.74491 0.0528,0.21888 0.0645,0.22217 0.59801,0.1678 0.4984,-0.0508 0.56255,-0.0378 0.7624,0.15433 0.40089,0.38542 0.42181,1.07944 0.0444,1.47435 -0.39266,0.4109 -1.19304,0.21403 -1.42035,-0.34937 -0.0489,-0.12111 -0.15325,-0.52523 -0.23196,-0.89804 -0.14863,-0.7039 -0.3548,-1.14381 -0.53427,-1.14 -0.0573,0.001 -0.19984,0.0904 -0.31669,0.19828 -0.1709,0.15772 -0.22696,0.32124 -0.28669,0.83619 -0.11171,0.96308 -0.20377,1.24751 -0.48355,1.49398 -0.27124,0.23895 -0.64656,0.29179 -0.98142,0.13816 z m 0.8079,-0.39125 c 0.4678,-0.41211 0.26771,-1.14749 -0.30888,-1.13526 -0.35078,0.007 -0.61167,0.21021 -0.67331,0.52331 -0.0689,0.3499 0.0245,0.57539 0.29646,0.71614 0.31888,0.165 0.39293,0.15375 0.68573,-0.10419 z m 3.30739,-0.15922 c 0.23159,-0.30855 0.21103,-0.67488 -0.0521,-0.92782 -0.39594,-0.38066 -1.06844,-0.16786 -1.0578,0.33473 0.0153,0.72149 0.72773,1.10222 1.10987,0.59309 z"
       id="path2377" />
    <path
       id="path2377-5"
       d="m 152.0977,1.9654643 c -0.24967,-0.11454 -0.492,-0.69752 -0.43453,-1.04536996 0.0247,-0.1492 0.13936,-0.37805 0.25492,-0.50856 0.19497,-0.22019 0.2492,-0.23562 0.75299,-0.21416 l 0.54289,0.0231 0.0485,-0.33077 c 0.0267,-0.18193 0.12953,-0.54328 0.22853,-0.803 l 0.18,-0.47222004 -0.441,-1.62272 c -0.56246,-2.06967 -0.58206,-2.17653 -0.43731,-2.38397 0.11208,-0.1606 0.12371,-0.15545 0.27512,0.12187 0.087,0.15926 0.3503,0.80271 0.58521,1.42989 0.23491,0.62717 0.4471,1.08242 0.47153,1.01166 0.0244,-0.0708 0.17162,-0.51059 0.32708,-0.9774 0.35495,-1.06588 0.68559,-1.85368 0.7788,-1.85565 0.0394,-8.4e-4 0.10034,0.10323 0.13541,0.23126 0.0616,0.22491 -0.002,0.54063 -0.64045,3.17014 l -0.21449,0.88363 0.19151,0.52165004 c 0.10534,0.28691 0.21574,0.62212 0.24533,0.74491 0.0528,0.21888 0.0645,0.22217 0.59801,0.1678 0.4984,-0.0508 0.56255,-0.0378 0.7624,0.15433 0.40089,0.38542 0.42181,1.07943996 0.0444,1.47434996 -0.39266,0.4109 -1.19304,0.21403 -1.42035,-0.34937 -0.0489,-0.12111 -0.15325,-0.52522996 -0.23196,-0.89803996 -0.14863,-0.7039 -0.3548,-1.14381 -0.53427,-1.14 -0.0573,0.001 -0.19984,0.0904 -0.31669,0.19828 -0.1709,0.15772 -0.22696,0.32124 -0.28669,0.83619 -0.11171,0.96307996 -0.20377,1.24750996 -0.48355,1.49397996 -0.27124,0.23895 -0.64656,0.29179 -0.98142,0.13816 z m 0.8079,-0.39125 c 0.4678,-0.41211 0.26771,-1.14748996 -0.30888,-1.13525996 -0.35078,0.007 -0.61167,0.21021 -0.67331,0.52331 -0.0689,0.34989996 0.0245,0.57538996 0.29646,0.71613996 0.31888,0.165 0.39293,0.15375 0.68573,-0.10419 z m 3.30739,-0.15922 c 0.23159,-0.30855 0.21103,-0.67487996 -0.0521,-0.92781996 -0.39594,-0.38066 -1.06844,-0.16786 -1.0578,0.33473 0.0153,0.72148996 0.72773,1.10221996 1.10987,0.59308996 z"
       style="opacity:0.995883;fill:#d9d8d9;fill-opacity:1;stroke-width:0.0849918" />
  </g>
</svg>
