<?xml version="1.0" encoding="UTF-8" standalone="no"?>
<svg
   xmlns:dc="http://purl.org/dc/elements/1.1/"
   xmlns:cc="http://creativecommons.org/ns#"
   xmlns:rdf="http://www.w3.org/1999/02/22-rdf-syntax-ns#"
   xmlns:svg="http://www.w3.org/2000/svg"
   xmlns="http://www.w3.org/2000/svg"
   xmlns:sodipodi="http://sodipodi.sourceforge.net/DTD/sodipodi-0.dtd"
   xmlns:inkscape="http://www.inkscape.org/namespaces/inkscape"
   inkscape:version="1.0beta2 (unknown)"
   sodipodi:docname="heart-1x.svg"
   width="10.98197mm"
   height="10.58508mm"
   viewBox="0 0 10.98197 10.58508"
   version="1.1"
   id="svg5173">
  <sodipodi:namedview
     inkscape:current-layer="layer1"
     inkscape:window-maximized="1"
     inkscape:window-y="27"
     inkscape:window-x="0"
     inkscape:cy="21.664218"
     inkscape:cx="18.172006"
     inkscape:zoom="6.3114611"
     inkscape:document-units="mm"
     showgrid="false"
     id="namedview1342"
     inkscape:window-height="704"
     inkscape:window-width="1366"
     inkscape:pageshadow="2"
     inkscape:pageopacity="0"
     guidetolerance="10"
     gridtolerance="10"
     objecttolerance="10"
     borderopacity="1"
     inkscape:document-rotation="0"
     bordercolor="#666666"
     pagecolor="#ffffff" />
  <defs
     id="defs5167">
    <clipPath
       id="clipPath4545"
       clipPathUnits="userSpaceOnUse">
      <path
         inkscape:connector-curvature="0"
         id="path4543"
         clip-rule="evenodd"
         d="m 355.01,722.9 -78.54,45.4 v -90.81 z" />
    </clipPath>
    <clipPath
       id="clipPath4535"
       clipPathUnits="userSpaceOnUse">
      <path
         inkscape:connector-curvature="0"
         id="path4533"
         clip-rule="evenodd"
         d="m 81.105,379.7 h 80.029 v 80.029 H 81.105 Z" />
    </clipPath>
    <clipPath
       id="clipPath4565"
       clipPathUnits="userSpaceOnUse">
      <path
         inkscape:connector-curvature="0"
         id="path4563"
         clip-rule="evenodd"
         d="m 523.28,420.48 c 1.58,1.43 4.19,4.65 5.23,6.44 2.07,4.02 2.62,8.14 2.62,12.58 -0.55,4.33 -2.07,8.45 -4.68,12.04 -3.17,2.86 -6.88,4.87 -10.46,6.03 -4.27,0.85 -8.39,0 -12.11,-1.16 l -50.23,-35.93 50.23,-35.4 c 3.72,-1.7 7.84,-2.12 12.11,-1.7 3.58,1.28 7.29,3.71 10.46,6.46 2.61,3.69 4.13,7.71 4.68,11.72 0,4.44 -0.55,8.88 -2.62,12.48 -1.04,1.84 -3.65,5.06 -5.23,6.44 z" />
    </clipPath>
    <clipPath
       id="clipPath4555"
       clipPathUnits="userSpaceOnUse">
      <path
         inkscape:connector-curvature="0"
         id="path4553"
         clip-rule="evenodd"
         d="m 308.01,163.89 c -25.15,0 -45.54,-20.39 -45.54,-45.55 0,-25.151 20.39,-45.541 45.54,-45.541 25.16,0 45.55,20.39 45.55,45.541 0,25.16 -20.39,45.55 -45.55,45.55 z" />
    </clipPath>
    <clipPath
       id="clipPath4335"
       clipPathUnits="userSpaceOnUse">
      <path
         inkscape:connector-curvature="0"
         id="path4333"
         clip-rule="evenodd"
         d="M 49.348,248.17 H 75.92 v 26.572 H 49.348 Z" />
    </clipPath>
    <clipPath
       id="clipPath4345"
       clipPathUnits="userSpaceOnUse">
      <path
         inkscape:connector-curvature="0"
         id="path4343"
         clip-rule="evenodd"
         d="M 116.86,261.45 90.984,276.41 V 246.49 Z" />
    </clipPath>
    <clipPath
       id="clipPath4355"
       clipPathUnits="userSpaceOnUse">
      <path
         inkscape:connector-curvature="0"
         id="path4353"
         clip-rule="evenodd"
         d="m 143.34,275.45 c -7.73,0 -14,-6.27 -14,-14 0,-7.73 6.27,-14 14,-14 7.73,0 14,6.27 14,14 0,7.73 -6.27,14 -14,14 z" />
    </clipPath>
    <clipPath
       id="clipPath4365"
       clipPathUnits="userSpaceOnUse">
      <path
         inkscape:connector-curvature="0"
         id="path4363"
         clip-rule="evenodd"
         d="m 195.87,261.37 c 0.64,0.57 1.69,1.87 2.1,2.59 0.84,1.61 1.06,3.27 1.06,5.05 -0.22,1.74 -0.83,3.4 -1.89,4.84 -1.27,1.14 -2.76,1.95 -4.2,2.42 -1.71,0.34 -3.37,0 -4.86,-0.47 l -20.18,-14.43 20.18,-14.23 c 1.49,-0.68 3.15,-0.84 4.86,-0.68 1.44,0.52 2.93,1.49 4.2,2.6 1.06,1.48 1.67,3.09 1.89,4.71 0,1.78 -0.22,3.56 -1.06,5.01 -0.41,0.74 -1.46,2.03 -2.1,2.59 z" />
    </clipPath>
  </defs>
  <metadata
     id="metadata5170">
    <rdf:RDF>
      <cc:Work
         rdf:about="">
        <dc:format>image/svg+xml</dc:format>
        <dc:type
           rdf:resource="http://purl.org/dc/dcmitype/StillImage" />
        <dc:title></dc:title>
      </cc:Work>
    </rdf:RDF>
  </metadata>
  <g
     id="layer1"
     transform="translate(-141.08542,-196.35131)">
    <path
       inkscape:connector-curvature="0"
       id="path2072"
       d="m 148.94851,206.83775 c -0.22551,-0.0353 -0.53254,-0.12185 -0.67516,-0.19036 -0.0765,-0.0368 -4.59239,-3.17363 -7.07309,-4.9132 -0.0516,-0.0362 -0.0911,-0.0731 -0.0879,-0.082 0.003,-0.009 1.6022,-1.14598 3.55314,-2.52677 l 3.54718,-2.51052 0.25258,-0.066 c 0.41534,-0.10854 0.66758,-0.13933 1.04288,-0.12732 0.38593,0.0123 0.51225,0.0465 0.94486,0.25519 0.48355,0.2333 0.89625,0.53874 1.05313,0.77943 0.21184,0.32501 0.36947,0.68848 0.46986,1.08342 0.0874,0.34391 0.10147,0.51871 0.0705,0.87617 -0.0545,0.62908 -0.20255,1.11883 -0.44681,1.47821 -0.0966,0.14213 -0.36442,0.47125 -0.51086,0.62777 l -0.12663,0.13535 0.0984,0.10205 c 0.43026,0.44601 0.69238,0.84511 0.83127,1.26571 0.0873,0.26453 0.12615,0.48403 0.15647,0.88537 0.0231,0.30581 0.0217,0.36652 -0.013,0.55978 -0.0785,0.43669 -0.27989,0.94239 -0.52099,1.30808 -0.0903,0.13704 -0.1634,0.21481 -0.31494,0.33526 -0.26634,0.2117 -0.61224,0.43526 -0.8782,0.56758 -0.36438,0.1813 -0.40481,0.19056 -0.8216,0.18815 -0.20045,-0.001 -0.44847,-0.0152 -0.55115,-0.0313 z m 0.89799,-1.08468 c 0.17473,-0.0871 0.56455,-0.342 0.70089,-0.45835 0.12851,-0.10966 0.33278,-0.52264 0.4136,-0.83616 0.0575,-0.22299 0.0583,-0.23495 0.0344,-0.52165 -0.0637,-0.7645 -0.25165,-1.06897 -1.13251,-1.83439 -0.27337,-0.23754 -0.49704,-0.43515 -0.49704,-0.43913 0,-0.004 0.22272,-0.20444 0.49493,-0.44549 0.4856,-0.42999 0.75401,-0.71702 0.89818,-0.96047 0.12516,-0.21134 0.21697,-0.57694 0.2444,-0.97317 0.0231,-0.33325 -0.0646,-0.67821 -0.27251,-1.07259 -0.09,-0.17073 -0.12025,-0.20703 -0.25583,-0.30719 -0.20303,-0.15 -0.46429,-0.29638 -0.68075,-0.38141 -0.17462,-0.0686 -0.17719,-0.0689 -0.47222,-0.0565 -0.1927,0.008 -0.35776,0.0282 -0.47105,0.0575 -0.17083,0.0442 -0.19723,0.0613 -1.28489,0.8312 -0.61077,0.43235 -1.90366,1.34747 -2.87309,2.0336 -0.96944,0.68613 -1.76247,1.25408 -1.7623,1.26211 1.7e-4,0.008 0.49124,0.35694 1.09125,0.77534 1.12537,0.78475 1.63085,1.13744 3.5648,2.48731 0.62212,0.43424 1.17067,0.80368 1.21899,0.82098 0.16517,0.0591 0.37334,0.0892 0.63202,0.0912 0.25287,0.002 0.26196,3.8e-4 0.40874,-0.0728 z"
       style="fill:#000000;stroke-width:0.0218493" />
  </g>
</svg>
