<svg id="Layer_1" data-name="Layer 1" xmlns="http://www.w3.org/2000/svg" viewBox="0 0 254.97 208.25"><defs><style>.cls-1{fill:#638baf;}.cls-2{fill:#97d045;stroke:#97d045;stroke-width:1.24px;}.cls-2,.cls-4{stroke-miterlimit:10;}.cls-3{fill:#033c5a;}.cls-4{fill:none;stroke:#033c5a;stroke-width:2.22px;}</style></defs><path class="cls-1" d="M217.55,141.66a4.19,4.19,0,0,0-7.83-.81,90.6,90.6,0,0,1-152,17.65,90,90,0,0,1-11.58-17.62c-.24-.48-.47-1-.7-1.45a1.43,1.43,0,0,0-1.41-.84A1.35,1.35,0,0,0,43,140.47c.22.54.45,1.07.69,1.6A92.75,92.75,0,0,0,93,189.75c10.9,4.52,22.49,7.68,34.38,7.84s24.93-1.28,36.12-5.54,22.27-10.52,31.18-18.66,16.94-17.84,22.24-28.77A5.19,5.19,0,0,0,217.55,141.66Z"/><path class="cls-2" d="M38.65,61.89a4.2,4.2,0,0,0,7.84.83,90.6,90.6,0,0,1,152-17.22,90,90,0,0,1,11.53,17.66c.24.48.47,1,.7,1.45a1.4,1.4,0,0,0,1.4.84,1.35,1.35,0,0,0,1.09-1.88q-.33-.8-.69-1.59a92.72,92.72,0,0,0-49.18-47.83C152.49,9.6,140.9,6.4,129,6.21s-24.93,1.21-36.13,5.44S70.57,22.1,61.65,30.22,44.65,48,39.32,58.92A5.29,5.29,0,0,0,38.65,61.89Z"/><path class="cls-3" d="M79.39,41.92c1.3,1.45,1,3.26-.7,4.82l-2,1.77,2,2.26-.5.45L72,44.32l2.48-2.22C76.25,40.54,78.08,40.46,79.39,41.92Zm-.51.46c-1.08-1.19-2.48-1.16-3.95.17l-2,1.77,3.36,3.74,2-1.78C79.76,45,79.94,43.57,78.88,42.38Z"/><path class="cls-3" d="M84,41.22l-2.91-4.49.56-.36,2.9,4.46c1.26,1.94,2.79,2.25,4.41,1.19s2-2.56.69-4.51l-2.89-4.46.56-.37,2.91,4.48c1.45,2.23,1,4.13-.94,5.39S85.4,43.44,84,41.22Z"/><path class="cls-3" d="M101.91,33.21c.63,1.43,0,2.71-2.13,3.63L96,38.52,92.23,30l3.54-1.57c1.82-.8,3.26-.53,3.89.88a2.14,2.14,0,0,1-.56,2.57A2.23,2.23,0,0,1,101.91,33.21Zm-8.82-2.92,1.5,3.38,2.89-1.28c1.47-.65,2.07-1.6,1.57-2.72S97.45,28.36,96,29Zm8.18,3.15c-.54-1.21-1.66-1.36-3.28-.64l-3.17,1.41,1.56,3.5,3.16-1.4C101.16,35.59,101.81,34.66,101.27,33.44Z"/><path class="cls-3" d="M103.61,25.48l.65-.19,2.39,8.34,5.14-1.47.17.59-5.79,1.65Z"/><path class="cls-3" d="M113.1,23.14l.66-.12,1.66,9.13-.66.12Z"/><path class="cls-3" d="M118.69,30.37l.27-.53a4.46,4.46,0,0,0,3.15.93c1.85-.15,2.61-1,2.53-2-.22-2.78-5.87-.66-6.14-4.08-.1-1.31.82-2.54,3.09-2.71a5,5,0,0,1,2.86.61l-.21.56a4.63,4.63,0,0,0-2.6-.58c-1.8.14-2.54,1-2.46,2.06.21,2.78,5.87.68,6.13,4.05.1,1.31-.86,2.52-3.15,2.7A4.76,4.76,0,0,1,118.69,30.37Z"/><path class="cls-3" d="M137,22.27l-.67,9.27-.67-.05.31-4.41-6.19-.44-.32,4.4-.67,0,.66-9.27.68.05L129.83,26l6.19.45.31-4.26Z"/><path class="cls-3" d="M146.87,33.07l-.13.59-6.24-1.43,2.07-9,6.05,1.38-.14.6-5.38-1.24-.82,3.57,4.82,1.1-.14.59-4.82-1.11-.84,3.71Z"/><path class="cls-3" d="M153.52,26.06l3.41,1.37a4.65,4.65,0,1,1-3.45,8.62l-3.41-1.37Zm.14,9.4c2.44,1,4.63,0,5.5-2.14S159.1,29,156.66,28l-2.74-1.09-3,7.49Z"/><path class="cls-3" d="M172.55,44c-.89,1.29-2.33,1.37-4.21.07l-3.4-2.36,5.3-7.63,3.18,2.21c1.63,1.13,2.15,2.51,1.27,3.77a2.12,2.12,0,0,1-2.48.86A2.23,2.23,0,0,1,172.55,44Zm-.52-.43c.75-1.09.29-2.12-1.17-3.13l-2.84-2-2.19,3.15,2.85,2C170.14,44.64,171.26,44.71,172,43.61ZM170.46,35l-2.11,3,2.6,1.81c1.32.92,2.44.93,3.14-.08s.29-2-1-3Z"/><path class="cls-3" d="M177.87,47.78l-2.18,2.34-.49-.46,2.17-2.34,1.41-7,.54.51-1.26,6.28,6.17-1.71.52.47Z"/><path class="cls-4" d="M80.68,63.58a60.56,60.56,0,0,1,93.69-.16"/><path class="cls-4" d="M177.56,136.42a60.57,60.57,0,0,1-99.93,0"/><path class="cls-3" d="M65.69,119.43a20.21,20.21,0,0,1-6.09,1c-9,0-13.9-5.9-13.9-15.37s4.86-15.31,14-15.31a19,19,0,0,1,5.72.92l1.91.55c.36.07.49.31.36.68l-.79,2.46a.57.57,0,0,1-.68.37l-1.72-.49a14.35,14.35,0,0,0-4.74-.81c-6.77,0-10,4.43-10,11.63s3.38,11.69,9.9,11.69a18.66,18.66,0,0,0,5.23-.87l1.72-.49a.52.52,0,0,1,.74.37l.73,2.4a.52.52,0,0,1-.37.74Z"/><path class="cls-3" d="M126.42,118.81a22.82,22.82,0,0,1-8.85,1.6c-11.19,0-18-8.36-18-21.77s6.77-21.83,18-21.83a22,22,0,0,1,8.73,1.54l2.58.92a.49.49,0,0,1,.31.68l-.86,2.52a.52.52,0,0,1-.74.37l-2.58-1a19.14,19.14,0,0,0-7.44-1.16c-8.74,0-13.78,6.64-13.78,18s5,18,13.78,18a19.71,19.71,0,0,0,7.56-1.35l2.52-.86a.48.48,0,0,1,.68.31l.92,2.51a.48.48,0,0,1-.31.68Z"/><path class="cls-3" d="M164.73,94.65c.19.55.55.55.92,0a11.32,11.32,0,0,1,9.84-5c6.77,0,10.89,4.55,10.89,11.92v17.6a.49.49,0,0,1-.56.55h-2.89a.48.48,0,0,1-.55-.55V102c0-5.35-2.71-8.54-7.25-8.54-6.1,0-9.66,4.54-9.66,12.35v13.48a.49.49,0,0,1-.55.55H162a.49.49,0,0,1-.55-.55V90.9a.49.49,0,0,1,.55-.56h1.91a.49.49,0,0,1,.55.56Z"/><path class="cls-3" d="M203.83,90.34a.49.49,0,0,1,.56.56v2.51a.49.49,0,0,1-.56.55H197V112.6c0,2.65,1.17,4.13,3.26,4.13a5.32,5.32,0,0,0,1.6-.31.56.56,0,0,1,.74.31l1.05,2.27a.52.52,0,0,1-.25.74,7.35,7.35,0,0,1-3.14.67c-4.55,0-7.25-2.82-7.25-7.74V94h-2.83a.49.49,0,0,1-.56-.55V90.9a.49.49,0,0,1,.56-.56H193V83a.55.55,0,0,1,.43-.61l2.95-1c.37-.12.61.06.61.49v8.49Z"/><path class="cls-3" d="M223.11,92.86a.48.48,0,0,1-.55.55c-6.58.31-10.33,5.85-10.33,16.24v9.6a.49.49,0,0,1-.56.55h-2.89a.48.48,0,0,1-.55-.55V90.9a.49.49,0,0,1,.55-.56h1.91c.37,0,.55.18.61.56l.43,4.6c.12.5.5.62.81.13a11.48,11.48,0,0,1,10-5.9.48.48,0,0,1,.55.55Z"/><path class="cls-3" d="M86.25,103.08c4.07,0,5.32-2,5.32-4.31,0-3.45-3-5.66-7.6-5.66-6.2,0-9.55,4-9.88,10Zm4.49,16.31a21.6,21.6,0,0,1-6.65.92c-9.23,0-13.83-5.91-13.83-15.39S75.66,89.6,84,89.6c6.11,0,11,3.39,11,9.1,0,4.32-1.72,7.75-8.06,7.77l-12.83,0c.21,7,4.5,10.17,10,10.17a18.7,18.7,0,0,0,5.72-.8l1.86-.55a.58.58,0,0,1,.73.43l.74,2.46c0,.37-.07.61-.43.68Z"/><path class="cls-3" d="M148.13,103.08c4.07,0,5.32-2,5.32-4.31,0-3.45-3-5.66-7.61-5.66-6.19,0-9.54,4-9.87,10Zm4.49,16.31a21.56,21.56,0,0,1-6.65.92c-9.23,0-13.83-5.91-13.83-15.39s5.4-15.32,13.77-15.32c6.11,0,11,3.39,11,9.1,0,4.32-1.73,7.75-8.06,7.77l-12.83,0c.21,7,4.5,10.17,10,10.17a18.65,18.65,0,0,0,5.72-.8l1.85-.55a.6.6,0,0,1,.75.43l.73,2.46c.06.37-.07.61-.43.68Z"/><path class="cls-3" d="M239.1,103.08c4.07,0,5.32-2,5.32-4.31,0-3.45-3-5.66-7.6-5.66-6.2,0-9.55,4-9.87,10Zm4.49,16.31a21.6,21.6,0,0,1-6.65.92c-9.23,0-13.83-5.91-13.83-15.39s5.4-15.32,13.77-15.32c6.11,0,11,3.39,11,9.1,0,4.32-1.73,7.75-8.07,7.77l-12.83,0c.21,7,4.5,10.17,10,10.17a18.7,18.7,0,0,0,5.72-.8l1.86-.55a.57.57,0,0,1,.73.43l.74,2.46c.06.37-.07.61-.43.68Z"/><path class="cls-3" d="M34,103.48,29.16,90.59c-1.12-2.93-2-5.3-2.95-8-.18-.51-.58-.51-.76,0-.73,2.11-1.69,4.47-2.84,7.93l-4.92,12.92ZM16.23,107l-5,12.45a.58.58,0,0,1-.64.41h-3a.4.4,0,0,1-.41-.58l13-31.58c1.27-3.19,2-5.23,3.25-8.33,1-2.68,1.44-2.85,2.26-2.85h.14c1.06,0,1.31.59,1.77,1.59,1,2.41,2.66,6.34,3.94,9.59l13,31.58c.11.35-.06.58-.41.58H41.13a.58.58,0,0,1-.64-.41l-5-12.45Z"/></svg>