<?xml version="1.0" encoding="UTF-8" standalone="no"?>
<svg
   xmlns:dc="http://purl.org/dc/elements/1.1/"
   xmlns:cc="http://creativecommons.org/ns#"
   xmlns:rdf="http://www.w3.org/1999/02/22-rdf-syntax-ns#"
   xmlns:svg="http://www.w3.org/2000/svg"
   xmlns="http://www.w3.org/2000/svg"
   xmlns:sodipodi="http://sodipodi.sourceforge.net/DTD/sodipodi-0.dtd"
   xmlns:inkscape="http://www.inkscape.org/namespaces/inkscape"
   width="12.068535mm"
   height="286.68344mm"
   viewBox="0 0 12.068535 286.68344"
   version="1.1"
   id="svg9644"
   inkscape:version="1.0beta2 (unknown)"
   sodipodi:docname="cut-out-right-side-guide-04.svg">
  <defs
     id="defs9638" />
  <sodipodi:namedview
     id="base"
     pagecolor="#ffffff"
     bordercolor="#666666"
     borderopacity="1.0"
     inkscape:pageopacity="0.0"
     inkscape:pageshadow="2"
     inkscape:zoom="0.7"
     inkscape:cx="77.846166"
     inkscape:cy="342.53035"
     inkscape:document-units="mm"
     inkscape:current-layer="layer1"
     inkscape:document-rotation="0"
     showgrid="false"
     fit-margin-top="0"
     fit-margin-left="0"
     fit-margin-right="0"
     fit-margin-bottom="0"
     inkscape:window-width="1366"
     inkscape:window-height="704"
     inkscape:window-x="0"
     inkscape:window-y="27"
     inkscape:window-maximized="1" />
  <metadata
     id="metadata9641">
    <rdf:RDF>
      <cc:Work
         rdf:about="">
        <dc:format>image/svg+xml</dc:format>
        <dc:type
           rdf:resource="http://purl.org/dc/dcmitype/StillImage" />
        <dc:title />
      </cc:Work>
    </rdf:RDF>
  </metadata>
  <g
     inkscape:label="Layer 1"
     inkscape:groupmode="layer"
     id="layer1"
     transform="translate(-27.227638,26.169107)">
    <path
       inkscape:connector-curvature="0"
       id="path8243"
       style="fill:#89cf25;fill-opacity:1;fill-rule:evenodd;stroke:none;stroke-width:0.352777"
       d="m 27.227638,34.466338 10.00125,-3.517197 V 5.7255311 l -10.00125,-3.517193 z" />
    <g
       id="g8265"
       transform="matrix(0.35277777,0,0,-0.35277777,-167.8126,265.49697)">
      <path
         inkscape:connector-curvature="0"
         id="path8267"
         style="fill:none;stroke:#d9d8d9;stroke-width:2.25;stroke-linecap:butt;stroke-linejoin:round;stroke-miterlimit:10;stroke-dasharray:9, 6.75;stroke-dashoffset:0;stroke-opacity:1"
         d="M 554.37,654.41 V 14.124" />
    </g>
    <g
       id="g8277"
       transform="matrix(0.35277777,0,0,-0.35277777,-167.8126,265.49697)">
      <path
         inkscape:connector-curvature="0"
         id="path8279"
         style="fill:none;stroke:#d9d8d9;stroke-width:2.25;stroke-linecap:butt;stroke-linejoin:round;stroke-miterlimit:10;stroke-dasharray:9, 6.75;stroke-dashoffset:0;stroke-opacity:1"
         d="m 583.33,732.07 v -66.9" />
    </g>
    <g
       id="g8281"
       transform="matrix(0.35277777,0,0,-0.35277777,-167.8126,265.49697)">
      <path
         inkscape:connector-curvature="0"
         id="path8283"
         style="fill:none;stroke:#d9d8d9;stroke-width:2.25;stroke-linecap:butt;stroke-linejoin:round;stroke-miterlimit:10;stroke-dasharray:9, 6.75;stroke-dashoffset:0;stroke-opacity:1"
         d="m 560.67,745.45 22.66,-8.03" />
    </g>
    <g
       id="g8285"
       transform="matrix(0.35277777,0,0,-0.35277777,-167.8126,265.49697)">
      <path
         inkscape:connector-curvature="0"
         id="path8287"
         style="fill:none;stroke:#d9d8d9;stroke-width:2.25;stroke-linecap:butt;stroke-linejoin:round;stroke-miterlimit:10;stroke-dasharray:9, 6.75;stroke-dashoffset:0;stroke-opacity:1"
         d="m 557.37,655.12 29.71,10.23" />
    </g>
    <g
       id="g8289"
       transform="matrix(0.35277777,0,0,-0.35277777,-167.8126,265.49697)">
      <path
         inkscape:connector-curvature="0"
         id="path8291"
         style="fill:none;stroke:#d9d8d9;stroke-width:2.25;stroke-linecap:butt;stroke-linejoin:round;stroke-miterlimit:10;stroke-dasharray:9, 6.75;stroke-dashoffset:0;stroke-opacity:1"
         d="M 554.37,826.77 V 747.26" />
    </g>
    <path
       inkscape:transform-center-y="2.4494503"
       inkscape:transform-center-x="-4.1154902"
       inkscape:connector-curvature="0"
       id="path2377"
       d="m 29.618749,115.62322 c -0.24783,-0.11843 -0.4811,-0.70507 -0.41824,-1.05199 0.027,-0.1488 0.14522,-0.37584 0.26278,-0.50454 0.19838,-0.21713 0.25285,-0.23171 0.75624,-0.20243 l 0.54245,0.0316 0.0537,-0.32996 c 0.0295,-0.18151 0.13796,-0.5412 0.24097,-0.79936 l 0.18731,-0.46937 -0.41574,-1.62937 c -0.53024,-2.07817 -0.54817,-2.18531 -0.40022,-2.39047 0.11451,-0.15888 0.12611,-0.15351 0.2732,0.12612 0.0845,0.16062 0.33778,0.80805 0.56292,1.4388 0.22514,0.63075 0.43023,1.08924 0.45577,1.01887 0.0256,-0.0704 0.17952,-0.50786 0.3422,-0.97221 0.37148,-1.06023 0.71431,-1.8428 0.80753,-1.84333 0.0395,-2.1e-4 0.0985,0.10509 0.13181,0.23336 0.0581,0.22583 -0.0108,0.54053 -0.68962,3.1598 l -0.22819,0.88019 0.18339,0.52457 c 0.10086,0.28852 0.20604,0.62539 0.23373,0.74863 0.0494,0.21966 0.0611,0.22315 0.59532,0.17707 0.49913,-0.043 0.56308,-0.0291 0.75992,0.16614 0.39469,0.39177 0.405,1.08587 0.0215,1.47487 -0.39898,0.40476 -1.19621,0.19547 -1.41475,-0.37139 -0.047,-0.12187 -0.14508,-0.52754 -0.21799,-0.90153 -0.13768,-0.70613 -0.33699,-1.14919 -0.51651,-1.14816 -0.0573,3.2e-4 -0.2012,0.0874 -0.31975,0.19331 -0.17335,0.15503 -0.23191,0.31768 -0.29963,0.83164 -0.12667,0.96122 -0.22313,1.24419 -0.5067,1.48628 -0.2749,0.23474 -0.65101,0.28172 -0.98346,0.12292 z m 0.81389,-0.37866 c 0.47411,-0.40481 0.28549,-1.14319 -0.29121,-1.13992 -0.35086,0.002 -0.61487,0.20068 -0.68137,0.51278 -0.0743,0.3488 0.0155,0.57571 0.28531,0.72067 0.31627,0.16994 0.3905,0.15984 0.68727,-0.0936 z m 3.30946,-0.10783 c 0.23638,-0.30488 0.22148,-0.67151 -0.0376,-0.92851 -0.38982,-0.38693 -1.0657,-0.18444 -1.06287,0.31826 0.004,0.72164 0.71052,1.11338 1.10053,0.61025 z"
       style="fill:#d9d8d9;fill-opacity:1;stroke-width:0.0849918" />
    <path
       style="fill:#d9d8d9;fill-opacity:1;stroke-width:0.0849918"
       d="m 29.618749,-6.1584144 c -0.24783,-0.11843 -0.4811,-0.70507 -0.41824,-1.05199 0.027,-0.1488 0.14522,-0.37584 0.26278,-0.50454 0.19838,-0.21713 0.25285,-0.23171 0.75624,-0.20243 l 0.54245,0.0316 0.0537,-0.32996 c 0.0295,-0.18151 0.13796,-0.5412 0.24097,-0.79936 l 0.18731,-0.46937 -0.41574,-1.6293706 c -0.53024,-2.078171 -0.54817,-2.185311 -0.40022,-2.390471 0.11451,-0.15888 0.12611,-0.15351 0.2732,0.12612 0.0845,0.16062 0.33778,0.80805 0.56292,1.438801 0.22514,0.63075 0.43023,1.08924 0.45577,1.01887 0.0256,-0.0704 0.17952,-0.50786 0.3422,-0.97221 0.37148,-1.060231 0.71431,-1.842802 0.80753,-1.843332 0.0395,-2.1e-4 0.0985,0.105091 0.13181,0.233361 0.0581,0.22583 -0.0108,0.54053 -0.68962,3.159802 l -0.22819,0.8801896 0.18339,0.52457 c 0.10086,0.28852 0.20604,0.62539 0.23373,0.74863 0.0494,0.21966 0.0611,0.22315 0.59532,0.17707 0.49913,-0.043 0.56308,-0.0291 0.75992,0.16614 0.39469,0.39177 0.405,1.08587 0.0215,1.474871 -0.39898,0.404759 -1.19621,0.195469 -1.41475,-0.371391 -0.047,-0.12187 -0.14508,-0.52754 -0.21799,-0.90153 -0.13768,-0.70613 -0.33699,-1.14919 -0.51651,-1.14816 -0.0573,3.18e-4 -0.2012,0.0874 -0.31975,0.19331 -0.17335,0.15503 -0.23191,0.31768 -0.29963,0.83164 -0.12667,0.96122 -0.22313,1.24419 -0.5067,1.48628 -0.2749,0.23474 -0.65101,0.28172 -0.98346,0.12292 z m 0.81389,-0.37866 c 0.47411,-0.40481 0.28549,-1.14319 -0.29121,-1.13992 -0.35086,0.002 -0.61487,0.20068 -0.68137,0.51278 -0.0743,0.3488 0.0155,0.57571 0.28531,0.72067 0.31627,0.16994 0.3905,0.15984 0.68727,-0.0936 z m 3.30946,-0.10783 c 0.23638,-0.30488 0.22148,-0.67151 -0.0376,-0.92851 -0.38982,-0.38693 -1.0657,-0.18444 -1.06287,0.31826 0.004,0.72164 0.71052,1.11338 1.10053,0.61025 z"
       id="path2377-6"
       inkscape:connector-curvature="0"
       inkscape:transform-center-x="-4.1154902"
       inkscape:transform-center-y="2.4494503" />
  </g>
</svg>
